<svg xmlns="http://www.w3.org/2000/svg" height="234.4" width="496" viewBox="0 0 500 238.4">
 <g transform="matrix(1.3333 0 0 -1.3333 -78.425 495.98)">
  <g>
   <path d="m60.339 194.68c49.257 44.383 114.47 71.4 185.99 71.4 79.159 0 142.13-31.855 185.98-71.392l-0.012-0.0259 0.0378 175.8h-371.99v-175.8z" fill="#d52130"/>
   <path transform="matrix(.75 0 0 -.75 58.819 371.99)" d="m266 12.688-99.805 0.039062v39.908l5.709 0.052734-16.643 48.557-0.54688 0.10352c-2.7783 0.51214-5.3276 1.0066-8.082 1.5586l-0.02929-50.219 11.512 0.029297 0.01172-39.988h-70.857l0.03125 26.434-14.691-26.434h-59.857l-0.007812 40.205 10.479-0.029297-0.029297 92.051s-6.9862 3.4563-10.383 5.2422l0.017578 56.742c21.674-15.868 45.003-29.664 69.838-40.971l-0.003907-0.00586 0.003907-40.562 21.223 31.635c45.188-17.492 94.498-25.961 146.13-25.961 89.109 0 171.31 27.514 237.32 75.848l0.0039-56.668-0.35546-0.18164c-3.914-2.0539-7.4558-3.8568-11.441-5.8125l-17.939-91.572h10.748l0.02344-40h-100.79l-0.05469 40 7.3906-0.003906-17.02 51.141h-0.00976c-5.0763-1.0667-15.33-2.9824-15.33-2.9824l0.00195-48.154h10.092l-0.00195-40h-72.562l-0.08008 39.971 12.111 0.029297 0.02734 41.65s-12.917-0.90052-19.359-1.1738v-0.003906l-13.158-40.465 6.3125-0.035156 0.06055-39.973zm221.34 194.23v0.01757l0.01953-0.0039c-0.00641-0.0047-0.01312-0.00898-0.01953-0.01367z" fill="#fff"/>
   <path transform="matrix(.75 0 0 -.75 58.819 371.99)" d="m375.68 20.773v24.104l10.406-0.048828-22.945 68.547h-0.00195c-3.4311-0.80403-10.346-2.3008-10.346-2.3008l0.0039 26.295s15.417 3.9542 22.982 6.2363c10.145 3.0596 20.515 6.5244 30.299 10.287l0.00586-28.379h-0.07617c-3.5054-1.1702-7.0303-2.3032-10.578-3.3965l5.2559-16.6 0.01367 0.01172c9.9721 2.7411 19.805 5.7414 29.49 9h0.00976l4.0176 21.402c-3.9591-1.6054-7.9498-3.1607-11.973-4.668l0.05859 29.381h0.00977c9.7306 4.2192 19.258 8.7883 28.559 13.689 9.6616 5.0816 28.234 16.295 28.234 16.295l-0.00391-33.66s-6.2459-3.3671-9.5098-5.0176l-21.125-107.07h11.637l0.02539-24.104h-84.449zm-354.92 0.003906v24.102l10.439 0.029297-0.011719 106.82-0.033203-0.07617c-3.6248 1.8256-6.9031 3.5243-10.467 5.4375v33.684c17.376-10.991 35.32-20.545 54.42-28.986l-0.001953-0.00782-0.013672-29.441h-0.13867c-3.0967 1.1808-6.2197 2.3936-9.2793 3.6328l-0.027343-52.59 42.648 65.377c10.044-3.4602 20.269-6.5657 30.66-9.2988l0.00195 0.01172 0.00391-94.59h10.945l0.00977-24.102h-54.33l-0.080079 24.102h10.768l-0.02344 40.74-37.896-64.842h-47.594zm267.44 0.003906-0.01563 24.078 12.01 0.019531-0.01563 58.033c-4.5084-0.45111-8.5736-0.80893-13.119-1.1406l0.04883 24.98c19.581 1.6453 38.768 4.5764 57.471 8.7129h0.02149l-0.00391-25.982-0.07031-0.08203c-3.3939-0.65543-10.08-1.9453-10.08-1.9453l0.01758-62.576h10.133v-24.098h-56.396zm-113.92 0.001953 0.02344 24.098h8.9004l-21.887 63.436v0.0039c-3.5346 0.63951-6.955 1.3123-10.455 2.0234l-4.252 0.83594 0.0293 26.326 4.2402-1.0195 0.00586 0.01758c17.598-4.0918 35.64-7.1199 54.045-9.0039h0.00586l-0.01172-25.066c-3.4944 0.3133-6.975 0.66249-10.443 1.0488l-0.00781 0.02344-0.05859-0.01563c0.02212-0.00246 0.04428-0.00534 0.0664-0.00781l5.4766-15.906s19.228-1.4187 28.701-1.7637l4.1719 14.912-0.00781-0.01758c-3.5639 0.12162-7.1205 0.2773-10.666 0.47266l0.00391 24.895c9.2079-0.58379 18.498-0.87305 27.859-0.87305 9.6829 0 19.287 0.31336 28.803 0.93164h0.01172l0.10937-24.893c-3.6858-0.20697-7.8359-0.40463-11.543-0.52929l-18.297-55.842 9.1894 0.037109 0.02149-24.123h-84.035zm47.877 80.396v-0.01172l-0.03906 0.01367c0.013-7.2e-4 0.02606-0.00124 0.03906-0.00195zm-17.232 1.2539c0.00717-6.4e-4 0.01431-0.00131 0.02149-0.00195h-0.02149v0.00195zm10.135-60.477 8.627 27.039c-6.0714 0.2282-12.116 0.53835-18.135 0.92578l9.5078-27.965zm201.5 7.2207 9.1758 42.361-0.01563-0.005859c-6.4561-1.7487-12.965-3.4013-19.521-4.959h-0.00391l10.365-37.396z" fill="#004990"/>
  </g>
 </g>
</svg>